<?xml version="1.0" standalone="no"?><!DOCTYPE svg PUBLIC "-//W3C//DTD SVG 1.1//EN" "http://www.w3.org/Graphics/SVG/1.1/DTD/svg11.dtd"><svg class="icon" width="200px" height="193.94px" viewBox="0 0 1056 1024" version="1.1" xmlns="http://www.w3.org/2000/svg"><path fill="#333333" d="M907.84 265.92H550.72l-22.72-69.12C518.4 160.96 498.88 128 459.84 128H148.16C112.32 128 80 157.44 80 196.8v630.08c0 68.8 68.16 65.6 68.16 65.6h759.68c35.84 0 68.16-29.44 68.16-68.8V334.72c0-36.16-29.12-68.8-68.16-68.8zM848 448h-128c-26.56 0-48-21.44-48-48s21.44-48 48-48h128c26.56 0 48 21.44 48 48s-21.44 48-48 48z"  /></svg>